<mxfile host="Electron" modified="2024-02-14T07:13:14.323Z" agent="Mozilla/5.0 (Macintosh; Intel Mac OS X 10_15_7) AppleWebKit/537.36 (KHTML, like Gecko) draw.io/23.0.2 Chrome/120.0.6099.109 Electron/28.1.0 Safari/537.36" etag="il6wM4IZ69qR_VLzvcVf" version="23.0.2" type="device">
  <diagram name="페이지-1" id="gQqWGEdI8C6-LFA8n1pl">
    <mxGraphModel dx="1941" dy="894" grid="1" gridSize="10" guides="1" tooltips="1" connect="1" arrows="1" fold="1" page="1" pageScale="1" pageWidth="827" pageHeight="1169" math="0" shadow="0">
      <root>
        <mxCell id="0" />
        <mxCell id="1" parent="0" />
        <mxCell id="Rs4zvLbOCn8GE1rFykFH-1" style="edgeStyle=orthogonalEdgeStyle;rounded=0;orthogonalLoop=1;jettySize=auto;html=1;entryX=0.25;entryY=0;entryDx=0;entryDy=0;endArrow=block;endFill=1;" edge="1" parent="1" source="Rs4zvLbOCn8GE1rFykFH-2" target="Rs4zvLbOCn8GE1rFykFH-5">
          <mxGeometry relative="1" as="geometry" />
        </mxCell>
        <mxCell id="Rs4zvLbOCn8GE1rFykFH-2" value="" style="sketch=0;outlineConnect=0;fontColor=#232F3E;gradientColor=none;fillColor=#232F3D;strokeColor=none;dashed=0;verticalLabelPosition=bottom;verticalAlign=top;align=center;html=1;fontSize=12;fontStyle=0;aspect=fixed;pointerEvents=1;shape=mxgraph.aws4.user;" vertex="1" parent="1">
          <mxGeometry x="196" y="30" width="30" height="30" as="geometry" />
        </mxCell>
        <mxCell id="Rs4zvLbOCn8GE1rFykFH-3" style="edgeStyle=orthogonalEdgeStyle;rounded=0;orthogonalLoop=1;jettySize=auto;html=1;exitX=0.25;exitY=1;exitDx=0;exitDy=0;entryX=0.25;entryY=0;entryDx=0;entryDy=0;endArrow=block;endFill=1;" edge="1" parent="1" source="Rs4zvLbOCn8GE1rFykFH-5" target="Rs4zvLbOCn8GE1rFykFH-8">
          <mxGeometry relative="1" as="geometry" />
        </mxCell>
        <mxCell id="Rs4zvLbOCn8GE1rFykFH-4" style="rounded=0;orthogonalLoop=1;jettySize=auto;html=1;exitX=1;exitY=0.5;exitDx=0;exitDy=0;entryX=0;entryY=0.5;entryDx=0;entryDy=0;endArrow=block;endFill=1;" edge="1" parent="1" source="Rs4zvLbOCn8GE1rFykFH-5" target="Rs4zvLbOCn8GE1rFykFH-13">
          <mxGeometry relative="1" as="geometry" />
        </mxCell>
        <mxCell id="Rs4zvLbOCn8GE1rFykFH-34" style="rounded=0;orthogonalLoop=1;jettySize=auto;html=1;entryX=0;entryY=0.5;entryDx=0;entryDy=0;exitX=1;exitY=0.5;exitDx=0;exitDy=0;endArrow=block;endFill=1;" edge="1" parent="1" source="Rs4zvLbOCn8GE1rFykFH-5" target="Rs4zvLbOCn8GE1rFykFH-33">
          <mxGeometry relative="1" as="geometry" />
        </mxCell>
        <mxCell id="Rs4zvLbOCn8GE1rFykFH-5" value="인증 필터&lt;br&gt;&lt;br&gt;(&lt;b&gt;AuthenticationFilter&lt;/b&gt;)" style="rounded=0;whiteSpace=wrap;html=1;" vertex="1" parent="1">
          <mxGeometry x="175" y="120" width="145" height="60" as="geometry" />
        </mxCell>
        <mxCell id="Rs4zvLbOCn8GE1rFykFH-6" style="edgeStyle=orthogonalEdgeStyle;rounded=0;orthogonalLoop=1;jettySize=auto;html=1;exitX=0.25;exitY=1;exitDx=0;exitDy=0;entryX=0.25;entryY=0;entryDx=0;entryDy=0;endArrow=block;endFill=1;" edge="1" parent="1" source="Rs4zvLbOCn8GE1rFykFH-8" target="Rs4zvLbOCn8GE1rFykFH-12">
          <mxGeometry relative="1" as="geometry" />
        </mxCell>
        <mxCell id="Rs4zvLbOCn8GE1rFykFH-7" style="edgeStyle=orthogonalEdgeStyle;rounded=0;orthogonalLoop=1;jettySize=auto;html=1;exitX=0.75;exitY=0;exitDx=0;exitDy=0;entryX=0.75;entryY=1;entryDx=0;entryDy=0;endArrow=block;endFill=1;" edge="1" parent="1" source="Rs4zvLbOCn8GE1rFykFH-8" target="Rs4zvLbOCn8GE1rFykFH-5">
          <mxGeometry relative="1" as="geometry" />
        </mxCell>
        <mxCell id="Rs4zvLbOCn8GE1rFykFH-8" value="인증 관리자&lt;br&gt;&lt;br&gt;(&lt;b&gt;AuthenticationManager&lt;/b&gt;)" style="rounded=0;whiteSpace=wrap;html=1;" vertex="1" parent="1">
          <mxGeometry x="175" y="240" width="145" height="60" as="geometry" />
        </mxCell>
        <mxCell id="Rs4zvLbOCn8GE1rFykFH-9" style="edgeStyle=orthogonalEdgeStyle;rounded=0;orthogonalLoop=1;jettySize=auto;html=1;exitX=0.75;exitY=0;exitDx=0;exitDy=0;entryX=0.75;entryY=1;entryDx=0;entryDy=0;endArrow=block;endFill=1;" edge="1" parent="1" source="Rs4zvLbOCn8GE1rFykFH-12" target="Rs4zvLbOCn8GE1rFykFH-8">
          <mxGeometry relative="1" as="geometry" />
        </mxCell>
        <mxCell id="Rs4zvLbOCn8GE1rFykFH-10" style="rounded=0;orthogonalLoop=1;jettySize=auto;html=1;exitX=1;exitY=0.5;exitDx=0;exitDy=0;entryX=0;entryY=0.5;entryDx=0;entryDy=0;endArrow=block;endFill=1;" edge="1" parent="1" source="Rs4zvLbOCn8GE1rFykFH-12" target="Rs4zvLbOCn8GE1rFykFH-14">
          <mxGeometry relative="1" as="geometry" />
        </mxCell>
        <mxCell id="Rs4zvLbOCn8GE1rFykFH-11" style="rounded=0;orthogonalLoop=1;jettySize=auto;html=1;entryX=0;entryY=0.5;entryDx=0;entryDy=0;exitX=1;exitY=0.5;exitDx=0;exitDy=0;endArrow=block;endFill=1;" edge="1" parent="1" source="Rs4zvLbOCn8GE1rFykFH-12" target="Rs4zvLbOCn8GE1rFykFH-15">
          <mxGeometry relative="1" as="geometry" />
        </mxCell>
        <mxCell id="Rs4zvLbOCn8GE1rFykFH-12" value="인증 공급자&lt;br&gt;&lt;br&gt;(&lt;b&gt;AuthenticationProvider&lt;/b&gt;)" style="rounded=0;whiteSpace=wrap;html=1;" vertex="1" parent="1">
          <mxGeometry x="175" y="360" width="145" height="60" as="geometry" />
        </mxCell>
        <mxCell id="Rs4zvLbOCn8GE1rFykFH-13" value="보안 컨텍스트&lt;br&gt;&lt;br&gt;(&lt;b&gt;SerucityContext&lt;/b&gt;)" style="rounded=0;whiteSpace=wrap;html=1;" vertex="1" parent="1">
          <mxGeometry x="400" y="80" width="120" height="60" as="geometry" />
        </mxCell>
        <mxCell id="Rs4zvLbOCn8GE1rFykFH-28" style="edgeStyle=orthogonalEdgeStyle;rounded=0;orthogonalLoop=1;jettySize=auto;html=1;endArrow=block;endFill=1;" edge="1" parent="1">
          <mxGeometry relative="1" as="geometry">
            <mxPoint x="570" y="331" as="sourcePoint" />
            <mxPoint x="660" y="331" as="targetPoint" />
          </mxGeometry>
        </mxCell>
        <mxCell id="Rs4zvLbOCn8GE1rFykFH-29" style="edgeStyle=orthogonalEdgeStyle;rounded=0;orthogonalLoop=1;jettySize=auto;html=1;startArrow=block;startFill=1;endArrow=none;endFill=0;" edge="1" parent="1">
          <mxGeometry relative="1" as="geometry">
            <mxPoint x="570" y="353" as="sourcePoint" />
            <mxPoint x="660" y="353" as="targetPoint" />
          </mxGeometry>
        </mxCell>
        <mxCell id="Rs4zvLbOCn8GE1rFykFH-14" value="JDBC 사용자 세부 정보 관리자&lt;br&gt;&lt;br&gt;(&lt;b&gt;JdbcUserDetailsManager&lt;/b&gt;)" style="rounded=0;whiteSpace=wrap;html=1;fillColor=#f8cecc;strokeColor=#b85450;" vertex="1" parent="1">
          <mxGeometry x="400" y="310" width="170" height="60" as="geometry" />
        </mxCell>
        <mxCell id="Rs4zvLbOCn8GE1rFykFH-15" value="암호 인코더&lt;br&gt;&lt;br&gt;(&lt;b&gt;PasswordEncoder&lt;/b&gt;)" style="rounded=0;whiteSpace=wrap;html=1;" vertex="1" parent="1">
          <mxGeometry x="400" y="410" width="170" height="60" as="geometry" />
        </mxCell>
        <mxCell id="Rs4zvLbOCn8GE1rFykFH-23" style="edgeStyle=orthogonalEdgeStyle;rounded=0;orthogonalLoop=1;jettySize=auto;html=1;endArrow=block;endFill=1;curved=1;fillColor=#d5e8d4;strokeColor=#82b366;" edge="1" parent="1" source="Rs4zvLbOCn8GE1rFykFH-16">
          <mxGeometry relative="1" as="geometry">
            <mxPoint x="210" y="100" as="targetPoint" />
          </mxGeometry>
        </mxCell>
        <mxCell id="Rs4zvLbOCn8GE1rFykFH-16" value="① 인증 필터가 요청을 가로챔" style="text;html=1;strokeColor=#82b366;fillColor=#d5e8d4;align=center;verticalAlign=middle;whiteSpace=wrap;rounded=1;" vertex="1" parent="1">
          <mxGeometry x="-20" y="70" width="150" height="30" as="geometry" />
        </mxCell>
        <mxCell id="Rs4zvLbOCn8GE1rFykFH-24" style="edgeStyle=orthogonalEdgeStyle;rounded=0;orthogonalLoop=1;jettySize=auto;html=1;fillColor=#d5e8d4;strokeColor=#82b366;curved=1;endArrow=block;endFill=1;" edge="1" parent="1" source="Rs4zvLbOCn8GE1rFykFH-17">
          <mxGeometry relative="1" as="geometry">
            <mxPoint x="210" y="200" as="targetPoint" />
          </mxGeometry>
        </mxCell>
        <mxCell id="Rs4zvLbOCn8GE1rFykFH-17" value="② 인증 관리자에게 &lt;br&gt;인증 책임이 위임됨" style="text;html=1;strokeColor=#82b366;fillColor=#d5e8d4;align=left;verticalAlign=middle;whiteSpace=wrap;rounded=1;" vertex="1" parent="1">
          <mxGeometry x="-10" y="195" width="104" height="45" as="geometry" />
        </mxCell>
        <mxCell id="Rs4zvLbOCn8GE1rFykFH-25" style="edgeStyle=orthogonalEdgeStyle;rounded=0;orthogonalLoop=1;jettySize=auto;html=1;curved=1;fillColor=#d5e8d4;strokeColor=#82b366;endArrow=block;endFill=1;" edge="1" parent="1" source="Rs4zvLbOCn8GE1rFykFH-18">
          <mxGeometry relative="1" as="geometry">
            <mxPoint x="210" y="340" as="targetPoint" />
          </mxGeometry>
        </mxCell>
        <mxCell id="Rs4zvLbOCn8GE1rFykFH-18" value="③ 인증 관리자는 인증 논리를 구현하는 인증 공급자를 이용함" style="text;html=1;strokeColor=#82b366;fillColor=#d5e8d4;align=left;verticalAlign=middle;whiteSpace=wrap;rounded=1;" vertex="1" parent="1">
          <mxGeometry x="-70" y="300" width="186" height="50" as="geometry" />
        </mxCell>
        <mxCell id="Rs4zvLbOCn8GE1rFykFH-38" style="edgeStyle=orthogonalEdgeStyle;rounded=0;orthogonalLoop=1;jettySize=auto;html=1;fillColor=#d5e8d4;strokeColor=#82b366;curved=1;endArrow=block;endFill=1;" edge="1" parent="1">
          <mxGeometry relative="1" as="geometry">
            <mxPoint x="610" y="354" as="targetPoint" />
            <mxPoint x="661.25" y="424" as="sourcePoint" />
          </mxGeometry>
        </mxCell>
        <mxCell id="Rs4zvLbOCn8GE1rFykFH-19" value="⑤ JdbcUserDetailsManager 인스턴스는 DB 에서 사용자를 찾아서 세부 정보 반환" style="text;html=1;strokeColor=#82b366;fillColor=#d5e8d4;align=left;verticalAlign=middle;whiteSpace=wrap;rounded=1;" vertex="1" parent="1">
          <mxGeometry x="661.25" y="390" width="217.5" height="60" as="geometry" />
        </mxCell>
        <mxCell id="Rs4zvLbOCn8GE1rFykFH-40" style="edgeStyle=orthogonalEdgeStyle;rounded=0;orthogonalLoop=1;jettySize=auto;html=1;fillColor=#d5e8d4;strokeColor=#82b366;curved=1;endArrow=block;endFill=1;" edge="1" parent="1" source="Rs4zvLbOCn8GE1rFykFH-22">
          <mxGeometry relative="1" as="geometry">
            <mxPoint x="360" y="130" as="targetPoint" />
          </mxGeometry>
        </mxCell>
        <mxCell id="Rs4zvLbOCn8GE1rFykFH-22" value="⑦ 인증이 성공하면 인증된 엔티티에 관한 세부 정보가 보안 컨텍스트에 저장됨" style="text;html=1;strokeColor=#82b366;fillColor=#d5e8d4;align=left;verticalAlign=middle;whiteSpace=wrap;rounded=1;" vertex="1" parent="1">
          <mxGeometry x="510" y="25" width="187.5" height="40" as="geometry" />
        </mxCell>
        <mxCell id="Rs4zvLbOCn8GE1rFykFH-35" style="edgeStyle=orthogonalEdgeStyle;rounded=0;orthogonalLoop=1;jettySize=auto;html=1;fillColor=#d5e8d4;strokeColor=#82b366;curved=1;endArrow=block;endFill=1;" edge="1" parent="1" source="Rs4zvLbOCn8GE1rFykFH-26">
          <mxGeometry relative="1" as="geometry">
            <mxPoint x="370" y="360" as="targetPoint" />
          </mxGeometry>
        </mxCell>
        <mxCell id="Rs4zvLbOCn8GE1rFykFH-26" value="④ 인증 공급자가 JdbcUserDetailsManager 를 호출하여 사용자 이름과 일치하는 사용자 세부 정보 얻음" style="text;html=1;strokeColor=#82b366;fillColor=#d5e8d4;align=left;verticalAlign=middle;whiteSpace=wrap;rounded=1;" vertex="1" parent="1">
          <mxGeometry x="200" y="525" width="240" height="65" as="geometry" />
        </mxCell>
        <mxCell id="Rs4zvLbOCn8GE1rFykFH-27" value="" style="sketch=0;outlineConnect=0;fontColor=#232F3E;gradientColor=none;fillColor=#C925D1;strokeColor=none;dashed=0;verticalLabelPosition=bottom;verticalAlign=top;align=center;html=1;fontSize=12;fontStyle=0;aspect=fixed;pointerEvents=1;shape=mxgraph.aws4.rds_mysql_instance;" vertex="1" parent="1">
          <mxGeometry x="660" y="310" width="60" height="60" as="geometry" />
        </mxCell>
        <mxCell id="Rs4zvLbOCn8GE1rFykFH-31" value="⑥ 사용자가 발견되면 암호 인코더는 사용자가 &lt;br&gt;제공한 암호가 DB 에 있는 암호와 일치하는지 확인" style="text;html=1;strokeColor=#82b366;fillColor=#d5e8d4;align=left;verticalAlign=middle;whiteSpace=wrap;rounded=1;" vertex="1" parent="1">
          <mxGeometry x="580" y="525" width="240" height="60" as="geometry" />
        </mxCell>
        <mxCell id="Rs4zvLbOCn8GE1rFykFH-41" style="edgeStyle=orthogonalEdgeStyle;rounded=0;orthogonalLoop=1;jettySize=auto;html=1;fillColor=#d5e8d4;strokeColor=#82b366;curved=1;endArrow=block;endFill=1;" edge="1" parent="1" source="Rs4zvLbOCn8GE1rFykFH-32">
          <mxGeometry relative="1" as="geometry">
            <mxPoint x="350" y="170" as="targetPoint" />
          </mxGeometry>
        </mxCell>
        <mxCell id="Rs4zvLbOCn8GE1rFykFH-32" value="⑧ 요청이 컨트롤러에 전달됨" style="text;html=1;strokeColor=#82b366;fillColor=#d5e8d4;align=left;verticalAlign=middle;whiteSpace=wrap;rounded=1;" vertex="1" parent="1">
          <mxGeometry x="500" y="240" width="187.5" height="40" as="geometry" />
        </mxCell>
        <mxCell id="Rs4zvLbOCn8GE1rFykFH-33" value="컨트롤러" style="rounded=0;whiteSpace=wrap;html=1;" vertex="1" parent="1">
          <mxGeometry x="400" y="160" width="120" height="60" as="geometry" />
        </mxCell>
        <mxCell id="Rs4zvLbOCn8GE1rFykFH-39" style="edgeStyle=orthogonalEdgeStyle;rounded=0;orthogonalLoop=1;jettySize=auto;html=1;entryX=0.682;entryY=1.05;entryDx=0;entryDy=0;entryPerimeter=0;fillColor=#d5e8d4;strokeColor=#82b366;curved=1;endArrow=block;endFill=1;" edge="1" parent="1" source="Rs4zvLbOCn8GE1rFykFH-31" target="Rs4zvLbOCn8GE1rFykFH-15">
          <mxGeometry relative="1" as="geometry" />
        </mxCell>
      </root>
    </mxGraphModel>
  </diagram>
</mxfile>
